<?xml version="1.0" standalone="no"?>
<!DOCTYPE svg PUBLIC "-//W3C//DTD SVG 1.1//EN" "http://www.w3.org/Graphics/SVG/1.1/DTD/svg11.dtd">
<svg width="66" height="66" version="1.1" xmlns="http://www.w3.org/2000/svg">
 <desc>Zint Generated Symbol</desc>
 <g id="barcode" fill="#000000">
  <rect x="0" y="0" width="66" height="66" fill="#FFFFFF"/>
  <path d="M0 0h14v2h-14ZM16 0h8v2h-8ZM26 0h2v2h-2ZM34 0h2v2h-2ZM42 0h6v2h-6ZM52 0h14v2h-14ZM0 2h2v10h-2ZM12 2h2v10h-2ZM22 2h4v2h-4ZM30 2h2v4h-2ZM40 2h6v2h-6ZM48 2h2v2h-2ZM52 2h2v10h-2ZM64 2h2v10h-2ZM4 4h6v6h-6ZM18 4h2v2h-2ZM22 4h2v2h-2ZM26 4h2v2h-2ZM40 4h4v2h-4ZM46 4h2v2h-2ZM56 4h6v6h-6ZM20 6h6v4h-6ZM32 6h2v2h-2ZM36 6h2v2h-2ZM40 6h6v2h-6ZM30 8h2v2h-2ZM34 8h2v2h-2ZM38 8h2v2h-2ZM42 8h2v2h-2ZM18 10h2v2h-2ZM22 10h14v2h-14ZM40 10h4v2h-4ZM48 10h2v4h-2ZM0 12h14v2h-14ZM16 12h2v2h-2ZM20 12h2v2h-2ZM24 12h2v4h-2ZM28 12h2v2h-2ZM32 12h2v4h-2ZM36 12h2v4h-2ZM40 12h2v2h-2ZM44 12h2v2h-2ZM52 12h14v2h-14ZM16 14h4v2h-4ZM40 14h4v2h-4ZM46 14h4v2h-4ZM0 16h4v2h-4ZM6 16h4v2h-4ZM12 16h2v2h-2ZM18 16h2v2h-2ZM24 16h4v2h-4ZM30 16h4v2h-4ZM38 16h8v2h-8ZM52 16h2v2h-2ZM64 16h2v4h-2ZM2 18h6v2h-6ZM10 18h2v2h-2ZM14 18h2v2h-2ZM20 18h2v2h-2ZM24 18h2v2h-2ZM28 18h2v2h-2ZM32 18h2v2h-2ZM40 18h2v2h-2ZM54 18h2v2h-2ZM58 18h4v2h-4ZM4 20h4v2h-4ZM12 20h4v2h-4ZM18 20h2v2h-2ZM22 20h2v4h-2ZM32 20h4v2h-4ZM44 20h2v2h-2ZM48 20h10v2h-10ZM62 20h4v2h-4ZM10 22h2v2h-2ZM14 22h4v2h-4ZM30 22h6v2h-6ZM38 22h2v2h-2ZM52 22h2v4h-2ZM56 22h10v2h-10ZM0 24h2v2h-2ZM4 24h2v2h-2ZM12 24h12v2h-12ZM26 24h2v2h-2ZM30 24h10v2h-10ZM46 24h2v4h-2ZM56 24h6v2h-6ZM64 24h2v2h-2ZM0 26h8v2h-8ZM16 26h2v4h-2ZM20 26h10v2h-10ZM32 26h2v2h-2ZM54 26h2v4h-2ZM58 26h8v2h-8ZM4 28h6v2h-6ZM12 28h2v2h-2ZM28 28h4v2h-4ZM34 28h2v2h-2ZM46 28h4v2h-4ZM58 28h2v2h-2ZM0 30h2v2h-2ZM10 30h2v2h-2ZM22 30h2v2h-2ZM26 30h2v2h-2ZM30 30h2v2h-2ZM34 30h8v2h-8ZM44 30h4v2h-4ZM54 30h4v4h-4ZM60 30h4v2h-4ZM2 32h4v2h-4ZM12 32h2v2h-2ZM16 32h2v2h-2ZM20 32h16v2h-16ZM42 32h6v2h-6ZM50 32h2v2h-2ZM62 32h4v2h-4ZM2 34h2v2h-2ZM6 34h4v2h-4ZM32 34h4v2h-4ZM38 34h2v2h-2ZM48 34h14v2h-14ZM0 36h2v2h-2ZM4 36h2v2h-2ZM12 36h4v2h-4ZM20 36h6v2h-6ZM28 36h2v2h-2ZM36 36h4v2h-4ZM44 36h6v2h-6ZM52 36h2v2h-2ZM62 36h2v4h-2ZM0 38h12v2h-12ZM14 38h2v2h-2ZM20 38h4v2h-4ZM30 38h6v2h-6ZM42 38h2v2h-2ZM46 38h2v2h-2ZM50 38h2v2h-2ZM54 38h2v2h-2ZM2 40h2v2h-2ZM12 40h2v2h-2ZM20 40h2v2h-2ZM24 40h4v2h-4ZM30 40h2v2h-2ZM36 40h4v2h-4ZM48 40h2v2h-2ZM52 40h2v2h-2ZM56 40h2v2h-2ZM0 42h4v2h-4ZM18 42h2v2h-2ZM24 42h2v2h-2ZM38 42h4v2h-4ZM46 42h2v2h-2ZM50 42h2v2h-2ZM60 42h2v2h-2ZM64 42h2v2h-2ZM0 44h2v4h-2ZM4 44h2v2h-2ZM12 44h6v2h-6ZM22 44h2v4h-2ZM30 44h4v2h-4ZM36 44h2v2h-2ZM44 44h2v4h-2ZM48 44h12v2h-12ZM4 46h4v2h-4ZM14 46h2v2h-2ZM28 46h8v2h-8ZM38 46h4v2h-4ZM48 46h2v2h-2ZM52 46h6v2h-6ZM0 48h14v2h-14ZM18 48h2v2h-2ZM22 48h4v2h-4ZM28 48h12v2h-12ZM46 48h12v2h-12ZM64 48h2v2h-2ZM16 50h6v2h-6ZM26 50h6v2h-6ZM38 50h2v4h-2ZM46 50h4v2h-4ZM56 50h2v4h-2ZM60 50h6v2h-6ZM0 52h14v2h-14ZM20 52h6v2h-6ZM30 52h2v4h-2ZM34 52h2v2h-2ZM48 52h2v2h-2ZM52 52h2v2h-2ZM0 54h2v10h-2ZM12 54h2v10h-2ZM20 54h2v2h-2ZM26 54h2v2h-2ZM34 54h6v2h-6ZM42 54h8v2h-8ZM56 54h4v2h-4ZM4 56h6v6h-6ZM16 56h2v2h-2ZM22 56h2v6h-2ZM28 56h6v2h-6ZM36 56h2v2h-2ZM40 56h2v4h-2ZM44 56h14v2h-14ZM16 58h4v2h-4ZM28 58h2v2h-2ZM32 58h6v2h-6ZM46 58h2v2h-2ZM50 58h2v2h-2ZM60 58h4v2h-4ZM26 60h2v2h-2ZM34 60h2v2h-2ZM38 60h4v2h-4ZM48 60h2v4h-2ZM54 60h6v2h-6ZM62 60h4v2h-4ZM16 62h2v2h-2ZM20 62h8v2h-8ZM30 62h2v2h-2ZM36 62h2v2h-2ZM42 62h2v4h-2ZM52 62h10v2h-10ZM0 64h14v2h-14ZM16 64h4v2h-4ZM24 64h2v2h-2ZM28 64h12v2h-12ZM46 64h2v2h-2ZM50 64h4v2h-4ZM56 64h2v2h-2ZM60 64h2v2h-2Z"/>
 </g>
</svg>
