<?xml version="1.0" standalone="no"?>
<!DOCTYPE svg PUBLIC "-//W3C//DTD SVG 1.1//EN" "http://www.w3.org/Graphics/SVG/1.1/DTD/svg11.dtd">
<svg width="66" height="66" version="1.1" xmlns="http://www.w3.org/2000/svg">
 <desc>Zint Generated Symbol</desc>
 <g id="barcode" fill="#000000">
  <rect x="0" y="0" width="66" height="66" fill="#FFFFFF"/>
  <path d="M0 0h14v2h-14ZM16 0h4v2h-4ZM30 0h2v2h-2ZM36 0h4v2h-4ZM42 0h2v2h-2ZM52 0h14v2h-14ZM0 2h2v10h-2ZM12 2h2v10h-2ZM30 2h10v2h-10ZM42 2h6v2h-6ZM52 2h2v10h-2ZM64 2h2v10h-2ZM4 4h6v6h-6ZM16 4h2v2h-2ZM22 4h10v2h-10ZM38 4h4v2h-4ZM46 4h4v2h-4ZM56 4h6v6h-6ZM16 6h4v2h-4ZM22 6h12v2h-12ZM36 6h2v2h-2ZM40 6h2v2h-2ZM16 8h8v2h-8ZM28 8h4v2h-4ZM34 8h4v2h-4ZM48 8h2v2h-2ZM18 10h2v2h-2ZM28 10h2v4h-2ZM36 10h2v4h-2ZM42 10h2v2h-2ZM46 10h2v2h-2ZM0 12h14v2h-14ZM16 12h2v2h-2ZM20 12h2v2h-2ZM24 12h2v2h-2ZM32 12h2v2h-2ZM40 12h2v2h-2ZM44 12h2v2h-2ZM48 12h2v2h-2ZM52 12h14v2h-14ZM18 14h2v2h-2ZM22 14h2v2h-2ZM30 14h2v2h-2ZM42 14h2v2h-2ZM0 16h8v2h-8ZM12 16h2v2h-2ZM16 16h2v2h-2ZM24 16h6v2h-6ZM32 16h2v2h-2ZM38 16h4v2h-4ZM44 16h2v2h-2ZM48 16h4v2h-4ZM56 16h6v4h-6ZM64 16h2v2h-2ZM0 18h4v2h-4ZM6 18h2v2h-2ZM16 18h4v2h-4ZM22 18h4v2h-4ZM28 18h4v2h-4ZM42 18h4v4h-4ZM52 18h2v2h-2ZM0 20h2v2h-2ZM6 20h8v2h-8ZM22 20h6v2h-6ZM30 20h2v4h-2ZM34 20h4v2h-4ZM50 20h4v2h-4ZM56 20h2v4h-2ZM60 20h6v2h-6ZM2 22h6v2h-6ZM10 22h2v2h-2ZM14 22h2v2h-2ZM22 22h2v2h-2ZM26 22h2v2h-2ZM34 22h2v2h-2ZM46 22h8v2h-8ZM64 22h2v2h-2ZM0 24h4v2h-4ZM6 24h4v2h-4ZM12 24h2v2h-2ZM16 24h4v2h-4ZM24 24h2v2h-2ZM28 24h10v2h-10ZM40 24h2v2h-2ZM44 24h2v2h-2ZM50 24h2v2h-2ZM60 24h4v2h-4ZM0 26h2v4h-2ZM8 26h4v2h-4ZM20 26h6v2h-6ZM32 26h4v2h-4ZM38 26h2v2h-2ZM48 26h4v2h-4ZM54 26h2v2h-2ZM64 26h2v2h-2ZM4 28h6v2h-6ZM12 28h2v2h-2ZM20 28h2v2h-2ZM24 28h2v2h-2ZM28 28h2v2h-2ZM36 28h2v2h-2ZM42 28h2v4h-2ZM46 28h2v4h-2ZM58 28h4v2h-4ZM4 30h8v2h-8ZM14 30h2v2h-2ZM18 30h6v2h-6ZM26 30h4v4h-4ZM38 30h2v2h-2ZM52 30h2v2h-2ZM60 30h6v4h-6ZM0 32h6v2h-6ZM10 32h6v2h-6ZM18 32h2v2h-2ZM22 32h2v2h-2ZM32 32h2v2h-2ZM36 32h2v4h-2ZM44 32h8v2h-8ZM56 32h2v2h-2ZM6 34h4v2h-4ZM24 34h4v4h-4ZM46 34h2v2h-2ZM52 34h6v2h-6ZM62 34h2v2h-2ZM2 36h2v2h-2ZM8 36h2v2h-2ZM12 36h2v2h-2ZM20 36h2v2h-2ZM30 36h2v2h-2ZM34 36h2v2h-2ZM40 36h2v2h-2ZM48 36h4v2h-4ZM56 36h4v2h-4ZM64 36h2v2h-2ZM2 38h8v2h-8ZM14 38h6v2h-6ZM22 38h12v2h-12ZM36 38h4v2h-4ZM42 38h2v4h-2ZM48 38h2v2h-2ZM54 38h2v2h-2ZM58 38h4v2h-4ZM0 40h2v2h-2ZM10 40h12v2h-12ZM24 40h6v2h-6ZM38 40h2v2h-2ZM52 40h6v2h-6ZM60 40h2v4h-2ZM0 42h4v2h-4ZM6 42h4v2h-4ZM14 42h2v2h-2ZM18 42h8v2h-8ZM28 42h4v2h-4ZM36 42h4v2h-4ZM42 42h6v2h-6ZM50 42h8v2h-8ZM4 44h2v2h-2ZM10 44h4v2h-4ZM20 44h4v2h-4ZM26 44h2v2h-2ZM36 44h2v2h-2ZM42 44h4v2h-4ZM50 44h4v2h-4ZM56 44h6v2h-6ZM2 46h2v2h-2ZM6 46h4v4h-4ZM16 46h2v2h-2ZM24 46h2v2h-2ZM28 46h4v2h-4ZM34 46h2v2h-2ZM40 46h2v4h-2ZM44 46h4v2h-4ZM50 46h14v2h-14ZM0 48h2v2h-2ZM12 48h4v2h-4ZM20 48h2v4h-2ZM30 48h4v2h-4ZM44 48h2v2h-2ZM48 48h12v2h-12ZM62 48h2v2h-2ZM16 50h2v2h-2ZM24 50h2v2h-2ZM28 50h2v2h-2ZM34 50h4v2h-4ZM48 50h2v4h-2ZM56 50h4v2h-4ZM64 50h2v2h-2ZM0 52h14v2h-14ZM22 52h4v2h-4ZM32 52h4v2h-4ZM38 52h2v2h-2ZM42 52h2v2h-2ZM52 52h2v2h-2ZM56 52h2v2h-2ZM60 52h2v2h-2ZM0 54h2v10h-2ZM12 54h2v10h-2ZM20 54h2v2h-2ZM28 54h6v2h-6ZM38 54h4v2h-4ZM46 54h4v2h-4ZM56 54h4v2h-4ZM64 54h2v2h-2ZM4 56h6v6h-6ZM18 56h2v2h-2ZM22 56h2v2h-2ZM26 56h2v2h-2ZM34 56h2v2h-2ZM40 56h18v2h-18ZM60 56h2v2h-2ZM16 58h2v8h-2ZM24 58h10v2h-10ZM36 58h6v2h-6ZM48 58h2v2h-2ZM58 58h2v2h-2ZM20 60h2v6h-2ZM24 60h4v2h-4ZM44 60h12v2h-12ZM24 62h2v4h-2ZM30 62h4v2h-4ZM38 62h2v2h-2ZM42 62h2v2h-2ZM46 62h2v2h-2ZM50 62h8v2h-8ZM62 62h2v2h-2ZM0 64h14v2h-14ZM32 64h8v2h-8ZM46 64h12v2h-12Z"/>
 </g>
</svg>
