<?xml version="1.0" standalone="no"?>
<!DOCTYPE svg PUBLIC "-//W3C//DTD SVG 1.1//EN" "http://www.w3.org/Graphics/SVG/1.1/DTD/svg11.dtd">
<svg width="58" height="58" version="1.1" xmlns="http://www.w3.org/2000/svg">
 <desc>Zint Generated Symbol</desc>
 <g id="barcode" fill="#000000">
  <rect x="0" y="0" width="58" height="58" fill="#FFFFFF"/>
  <path d="M0 0h14v2h-14ZM20 0h10v2h-10ZM32 0h4v2h-4ZM38 0h4v2h-4ZM44 0h14v2h-14ZM0 2h2v10h-2ZM12 2h2v10h-2ZM18 2h4v2h-4ZM24 2h6v2h-6ZM34 2h2v2h-2ZM44 2h2v10h-2ZM56 2h2v10h-2ZM4 4h6v6h-6ZM24 4h2v2h-2ZM28 4h2v2h-2ZM32 4h2v2h-2ZM40 4h2v2h-2ZM48 4h6v6h-6ZM16 6h2v2h-2ZM26 6h4v2h-4ZM32 6h6v2h-6ZM16 8h4v2h-4ZM24 8h2v2h-2ZM28 8h6v2h-6ZM36 8h2v2h-2ZM22 10h2v2h-2ZM26 10h2v2h-2ZM32 10h2v6h-2ZM0 12h14v2h-14ZM16 12h2v2h-2ZM20 12h2v2h-2ZM24 12h2v2h-2ZM28 12h2v4h-2ZM36 12h2v2h-2ZM40 12h2v2h-2ZM44 12h14v2h-14ZM20 14h4v2h-4ZM38 14h2v2h-2ZM0 16h4v2h-4ZM10 16h6v2h-6ZM18 16h2v2h-2ZM28 16h4v2h-4ZM36 16h2v2h-2ZM40 16h2v2h-2ZM48 16h4v2h-4ZM0 18h2v2h-2ZM4 18h8v2h-8ZM16 18h4v2h-4ZM24 18h2v2h-2ZM30 18h4v2h-4ZM36 18h6v2h-6ZM48 18h6v2h-6ZM56 18h2v2h-2ZM4 20h4v2h-4ZM10 20h4v2h-4ZM20 20h4v2h-4ZM28 20h2v2h-2ZM40 20h2v2h-2ZM46 20h2v2h-2ZM50 20h4v2h-4ZM6 22h4v2h-4ZM14 22h2v2h-2ZM18 22h2v2h-2ZM22 22h4v2h-4ZM30 22h22v2h-22ZM54 22h4v2h-4ZM0 24h2v4h-2ZM6 24h2v2h-2ZM12 24h2v2h-2ZM16 24h4v2h-4ZM22 24h6v2h-6ZM30 24h2v2h-2ZM38 24h2v2h-2ZM44 24h10v2h-10ZM56 24h2v2h-2ZM4 26h4v2h-4ZM16 26h2v2h-2ZM22 26h4v2h-4ZM28 26h2v4h-2ZM32 26h2v2h-2ZM36 26h6v2h-6ZM44 26h8v2h-8ZM0 28h6v2h-6ZM8 28h2v2h-2ZM12 28h4v2h-4ZM20 28h4v2h-4ZM34 28h2v2h-2ZM38 28h2v2h-2ZM42 28h2v2h-2ZM50 28h8v2h-8ZM4 30h2v4h-2ZM10 30h2v2h-2ZM16 30h2v2h-2ZM22 30h2v2h-2ZM26 30h6v2h-6ZM36 30h6v2h-6ZM46 30h4v2h-4ZM52 30h2v2h-2ZM8 32h2v2h-2ZM12 32h2v2h-2ZM16 32h4v2h-4ZM24 32h2v6h-2ZM28 32h4v2h-4ZM44 32h6v2h-6ZM0 34h2v2h-2ZM10 34h2v2h-2ZM14 34h4v2h-4ZM20 34h2v6h-2ZM28 34h2v2h-2ZM36 34h6v2h-6ZM44 34h2v6h-2ZM48 34h4v2h-4ZM0 36h8v2h-8ZM10 36h4v2h-4ZM38 36h4v2h-4ZM54 36h4v4h-4ZM0 38h2v4h-2ZM4 38h2v2h-2ZM8 38h4v2h-4ZM14 38h4v2h-4ZM28 38h2v2h-2ZM32 38h10v2h-10ZM48 38h2v2h-2ZM8 40h2v2h-2ZM12 40h6v2h-6ZM26 40h2v2h-2ZM30 40h2v2h-2ZM34 40h4v2h-4ZM40 40h16v2h-16ZM16 42h2v4h-2ZM20 42h2v2h-2ZM24 42h2v2h-2ZM38 42h4v4h-4ZM48 42h2v2h-2ZM52 42h2v2h-2ZM56 42h2v2h-2ZM0 44h14v2h-14ZM20 44h4v2h-4ZM26 44h6v2h-6ZM44 44h2v2h-2ZM48 44h6v2h-6ZM0 46h2v10h-2ZM12 46h2v10h-2ZM16 46h14v2h-14ZM32 46h10v2h-10ZM48 46h2v2h-2ZM52 46h2v2h-2ZM56 46h2v2h-2ZM4 48h6v6h-6ZM20 48h12v2h-12ZM34 48h2v2h-2ZM40 48h12v2h-12ZM54 48h2v4h-2ZM18 50h2v2h-2ZM22 50h2v2h-2ZM36 50h2v2h-2ZM40 50h8v2h-8ZM18 52h4v2h-4ZM28 52h8v2h-8ZM46 52h2v2h-2ZM52 52h4v2h-4ZM16 54h2v2h-2ZM22 54h8v2h-8ZM38 54h2v2h-2ZM42 54h4v2h-4ZM50 54h2v2h-2ZM54 54h2v2h-2ZM0 56h14v2h-14ZM16 56h6v2h-6ZM24 56h2v2h-2ZM30 56h6v2h-6ZM44 56h2v2h-2ZM48 56h6v2h-6Z"/>
 </g>
</svg>
