<?xml version="1.0" standalone="no"?>
<!DOCTYPE svg PUBLIC "-//W3C//DTD SVG 1.1//EN" "http://www.w3.org/Graphics/SVG/1.1/DTD/svg11.dtd">
<svg width="74" height="74" version="1.1" xmlns="http://www.w3.org/2000/svg">
 <desc>Zint Generated Symbol</desc>
 <g id="barcode" fill="#000000">
  <rect x="0" y="0" width="74" height="74" fill="#FFFFFF"/>
  <path d="M0 0h14v2h-14ZM20 0h2v4h-2ZM24 0h2v2h-2ZM28 0h6v2h-6ZM40 0h8v2h-8ZM54 0h4v2h-4ZM60 0h14v2h-14ZM0 2h2v10h-2ZM12 2h2v10h-2ZM16 2h2v2h-2ZM26 2h2v2h-2ZM30 2h2v2h-2ZM34 2h2v2h-2ZM44 2h2v2h-2ZM48 2h8v2h-8ZM60 2h2v10h-2ZM72 2h2v10h-2ZM4 4h6v6h-6ZM24 4h6v2h-6ZM32 4h2v2h-2ZM36 4h6v2h-6ZM56 4h2v2h-2ZM64 4h6v6h-6ZM16 6h6v2h-6ZM24 6h2v2h-2ZM28 6h6v2h-6ZM44 6h2v2h-2ZM48 6h4v2h-4ZM54 6h4v2h-4ZM18 8h2v2h-2ZM28 8h2v2h-2ZM32 8h2v6h-2ZM36 8h8v2h-8ZM52 8h4v2h-4ZM16 10h4v2h-4ZM22 10h8v2h-8ZM42 10h4v2h-4ZM50 10h4v2h-4ZM56 10h2v4h-2ZM0 12h14v2h-14ZM16 12h2v2h-2ZM20 12h2v2h-2ZM24 12h2v2h-2ZM28 12h2v2h-2ZM36 12h2v2h-2ZM40 12h2v2h-2ZM44 12h2v2h-2ZM48 12h2v2h-2ZM52 12h2v2h-2ZM60 12h14v2h-14ZM18 14h6v2h-6ZM34 14h4v2h-4ZM40 14h4v2h-4ZM46 14h2v2h-2ZM0 16h10v2h-10ZM12 16h8v2h-8ZM22 16h2v2h-2ZM30 16h4v2h-4ZM36 16h2v2h-2ZM40 16h2v2h-2ZM50 16h2v2h-2ZM54 16h2v2h-2ZM58 16h2v2h-2ZM62 16h2v4h-2ZM66 16h2v2h-2ZM70 16h2v2h-2ZM0 18h2v4h-2ZM4 18h8v2h-8ZM14 18h2v2h-2ZM18 18h4v2h-4ZM24 18h2v2h-2ZM28 18h4v2h-4ZM36 18h4v2h-4ZM42 18h4v2h-4ZM48 18h2v2h-2ZM54 18h4v4h-4ZM72 18h2v4h-2ZM12 20h2v2h-2ZM26 20h6v2h-6ZM34 20h2v2h-2ZM38 20h2v2h-2ZM48 20h4v2h-4ZM60 20h2v2h-2ZM64 20h2v2h-2ZM68 20h2v2h-2ZM4 22h2v4h-2ZM8 22h2v2h-2ZM14 22h8v2h-8ZM24 22h2v4h-2ZM28 22h20v2h-20ZM52 22h2v2h-2ZM62 22h2v2h-2ZM66 22h2v2h-2ZM70 22h2v2h-2ZM0 24h2v2h-2ZM8 24h8v2h-8ZM30 24h2v2h-2ZM34 24h2v2h-2ZM40 24h4v2h-4ZM52 24h4v2h-4ZM58 24h2v2h-2ZM62 24h4v2h-4ZM68 24h6v2h-6ZM2 26h8v2h-8ZM14 26h4v2h-4ZM20 26h2v2h-2ZM28 26h2v2h-2ZM32 26h2v2h-2ZM40 26h6v4h-6ZM48 26h2v2h-2ZM52 26h8v2h-8ZM62 26h6v2h-6ZM72 26h2v2h-2ZM0 28h4v4h-4ZM10 28h4v2h-4ZM16 28h2v2h-2ZM20 28h10v2h-10ZM34 28h2v2h-2ZM50 28h12v2h-12ZM64 28h2v2h-2ZM68 28h6v2h-6ZM6 30h2v2h-2ZM10 30h2v2h-2ZM18 30h2v2h-2ZM22 30h2v2h-2ZM32 30h8v2h-8ZM44 30h4v2h-4ZM66 30h6v2h-6ZM4 32h4v2h-4ZM10 32h4v2h-4ZM18 32h6v2h-6ZM26 32h6v2h-6ZM36 32h2v2h-2ZM44 32h2v2h-2ZM54 32h4v2h-4ZM60 32h14v2h-14ZM2 34h6v2h-6ZM14 34h2v2h-2ZM20 34h2v6h-2ZM24 34h2v2h-2ZM30 34h2v2h-2ZM36 34h10v2h-10ZM52 34h8v2h-8ZM66 34h2v2h-2ZM72 34h2v2h-2ZM0 36h8v2h-8ZM10 36h6v2h-6ZM28 36h2v2h-2ZM32 36h2v2h-2ZM42 36h4v2h-4ZM50 36h6v2h-6ZM60 36h14v2h-14ZM0 38h12v2h-12ZM14 38h2v2h-2ZM24 38h4v2h-4ZM34 38h2v2h-2ZM40 38h4v4h-4ZM46 38h2v2h-2ZM56 38h2v2h-2ZM62 38h2v4h-2ZM68 38h4v2h-4ZM0 40h4v2h-4ZM12 40h2v2h-2ZM24 40h2v2h-2ZM30 40h8v2h-8ZM48 40h4v2h-4ZM54 40h2v2h-2ZM58 40h2v2h-2ZM68 40h6v2h-6ZM0 42h6v2h-6ZM8 42h4v2h-4ZM14 42h4v2h-4ZM20 42h2v2h-2ZM30 42h2v2h-2ZM36 42h4v2h-4ZM42 42h4v2h-4ZM48 42h2v2h-2ZM52 42h2v2h-2ZM56 42h4v2h-4ZM62 42h6v2h-6ZM72 42h2v2h-2ZM4 44h2v2h-2ZM10 44h8v2h-8ZM22 44h4v2h-4ZM28 44h4v2h-4ZM38 44h2v2h-2ZM42 44h10v2h-10ZM54 44h8v2h-8ZM64 44h6v2h-6ZM0 46h2v2h-2ZM4 46h8v2h-8ZM14 46h10v2h-10ZM32 46h2v2h-2ZM36 46h12v2h-12ZM50 46h2v2h-2ZM62 46h2v2h-2ZM68 46h2v2h-2ZM0 48h6v4h-6ZM12 48h8v2h-8ZM22 48h2v2h-2ZM28 48h8v2h-8ZM44 48h2v2h-2ZM48 48h10v2h-10ZM60 48h2v2h-2ZM64 48h2v2h-2ZM68 48h6v2h-6ZM8 50h2v2h-2ZM18 50h4v2h-4ZM24 50h2v2h-2ZM28 50h4v4h-4ZM38 50h2v2h-2ZM42 50h8v4h-8ZM52 50h2v2h-2ZM56 50h2v2h-2ZM62 50h6v2h-6ZM72 50h2v2h-2ZM0 52h2v6h-2ZM12 52h4v2h-4ZM52 52h6v2h-6ZM60 52h2v2h-2ZM64 52h2v2h-2ZM68 52h4v2h-4ZM6 54h6v2h-6ZM14 54h4v2h-4ZM24 54h2v2h-2ZM32 54h6v2h-6ZM40 54h2v2h-2ZM44 54h4v2h-4ZM58 54h2v2h-2ZM66 54h2v2h-2ZM70 54h4v4h-4ZM6 56h2v2h-2ZM10 56h4v2h-4ZM16 56h4v4h-4ZM24 56h4v2h-4ZM30 56h4v2h-4ZM40 56h4v2h-4ZM52 56h14v2h-14ZM30 58h2v2h-2ZM36 58h4v2h-4ZM42 58h2v2h-2ZM46 58h2v2h-2ZM52 58h6v2h-6ZM64 58h2v2h-2ZM72 58h2v2h-2ZM0 60h14v2h-14ZM16 60h10v2h-10ZM44 60h10v2h-10ZM56 60h2v2h-2ZM60 60h2v2h-2ZM64 60h10v2h-10ZM0 62h2v10h-2ZM12 62h2v10h-2ZM18 62h2v2h-2ZM22 62h2v2h-2ZM30 62h6v2h-6ZM38 62h6v2h-6ZM50 62h2v4h-2ZM54 62h4v2h-4ZM64 62h2v2h-2ZM4 64h6v6h-6ZM16 64h2v10h-2ZM20 64h4v2h-4ZM30 64h2v4h-2ZM34 64h2v2h-2ZM44 64h2v2h-2ZM54 64h14v2h-14ZM20 66h2v2h-2ZM24 66h4v2h-4ZM38 66h2v2h-2ZM42 66h2v2h-2ZM48 66h2v2h-2ZM56 66h2v2h-2ZM64 66h2v2h-2ZM70 66h4v2h-4ZM26 68h4v2h-4ZM32 68h2v2h-2ZM40 68h8v2h-8ZM50 68h6v2h-6ZM60 68h4v2h-4ZM68 68h2v2h-2ZM72 68h2v2h-2ZM24 70h4v2h-4ZM30 70h4v2h-4ZM36 70h6v2h-6ZM46 70h6v2h-6ZM60 70h8v2h-8ZM70 70h2v2h-2ZM0 72h14v2h-14ZM20 72h2v2h-2ZM24 72h2v2h-2ZM28 72h8v2h-8ZM52 72h8v2h-8ZM62 72h2v2h-2ZM66 72h8v2h-8Z"/>
 </g>
</svg>
