<?xml version="1.0" standalone="no"?>
<!DOCTYPE svg PUBLIC "-//W3C//DTD SVG 1.1//EN" "http://www.w3.org/Graphics/SVG/1.1/DTD/svg11.dtd">
<svg width="82" height="82" version="1.1" xmlns="http://www.w3.org/2000/svg">
 <desc>Zint Generated Symbol</desc>
 <g id="barcode" fill="#000000">
  <rect x="0" y="0" width="82" height="82" fill="#FFFFFF"/>
  <path d="M0 0h14v2h-14ZM20 0h2v2h-2ZM26 0h2v2h-2ZM32 0h4v2h-4ZM42 0h8v2h-8ZM54 0h4v2h-4ZM60 0h4v2h-4ZM68 0h14v2h-14ZM0 2h2v10h-2ZM12 2h2v10h-2ZM16 2h4v2h-4ZM22 2h8v2h-8ZM34 2h2v2h-2ZM40 2h2v2h-2ZM44 2h10v2h-10ZM58 2h2v2h-2ZM68 2h2v10h-2ZM80 2h2v10h-2ZM4 4h6v6h-6ZM20 4h4v4h-4ZM26 4h2v2h-2ZM32 4h8v2h-8ZM42 4h2v2h-2ZM46 4h2v2h-2ZM56 4h2v2h-2ZM60 4h6v2h-6ZM72 4h6v6h-6ZM16 6h2v2h-2ZM28 6h6v2h-6ZM42 6h4v2h-4ZM52 6h6v2h-6ZM60 6h2v2h-2ZM20 8h6v2h-6ZM30 8h2v2h-2ZM36 8h2v2h-2ZM42 8h2v2h-2ZM48 8h2v2h-2ZM52 8h2v2h-2ZM56 8h2v2h-2ZM62 8h4v2h-4ZM16 10h12v2h-12ZM30 10h6v2h-6ZM44 10h2v4h-2ZM50 10h2v2h-2ZM54 10h2v2h-2ZM58 10h2v2h-2ZM0 12h14v2h-14ZM16 12h2v2h-2ZM20 12h2v4h-2ZM24 12h2v2h-2ZM28 12h2v2h-2ZM32 12h2v2h-2ZM36 12h2v2h-2ZM40 12h2v2h-2ZM48 12h2v2h-2ZM52 12h2v2h-2ZM56 12h2v2h-2ZM60 12h2v2h-2ZM64 12h2v2h-2ZM68 12h14v2h-14ZM28 14h4v2h-4ZM44 14h4v2h-4ZM50 14h2v2h-2ZM56 14h10v2h-10ZM0 16h10v2h-10ZM12 16h6v2h-6ZM20 16h6v2h-6ZM28 16h8v2h-8ZM42 16h2v2h-2ZM48 16h12v2h-12ZM66 16h2v2h-2ZM70 16h2v2h-2ZM74 16h2v2h-2ZM78 16h2v2h-2ZM2 18h2v4h-2ZM14 18h2v2h-2ZM18 18h2v2h-2ZM24 18h2v2h-2ZM36 18h2v4h-2ZM42 18h4v2h-4ZM48 18h2v2h-2ZM52 18h2v2h-2ZM68 18h8v2h-8ZM78 18h4v2h-4ZM6 20h2v2h-2ZM12 20h2v2h-2ZM16 20h2v2h-2ZM20 20h4v2h-4ZM40 20h2v2h-2ZM46 20h10v2h-10ZM58 20h4v2h-4ZM64 20h4v2h-4ZM70 20h2v2h-2ZM74 20h4v2h-4ZM4 22h6v2h-6ZM16 22h4v2h-4ZM24 22h2v2h-2ZM28 22h2v2h-2ZM32 22h2v2h-2ZM38 22h10v2h-10ZM56 22h4v2h-4ZM62 22h4v2h-4ZM68 22h8v2h-8ZM80 22h2v2h-2ZM0 24h2v4h-2ZM4 24h2v2h-2ZM8 24h2v2h-2ZM12 24h4v2h-4ZM20 24h6v2h-6ZM30 24h2v2h-2ZM36 24h2v2h-2ZM42 24h4v4h-4ZM48 24h4v2h-4ZM54 24h2v2h-2ZM60 24h2v4h-2ZM64 24h2v4h-2ZM68 24h2v4h-2ZM72 24h2v2h-2ZM78 24h2v4h-2ZM8 26h4v2h-4ZM14 26h2v2h-2ZM18 26h4v2h-4ZM28 26h6v2h-6ZM52 26h6v2h-6ZM74 26h2v4h-2ZM10 28h16v2h-16ZM28 28h2v4h-2ZM34 28h2v2h-2ZM40 28h2v2h-2ZM44 28h2v2h-2ZM48 28h12v2h-12ZM62 28h4v2h-4ZM70 28h2v2h-2ZM78 28h4v2h-4ZM6 30h2v2h-2ZM14 30h2v2h-2ZM18 30h6v2h-6ZM32 30h2v2h-2ZM38 30h2v2h-2ZM42 30h6v2h-6ZM56 30h4v2h-4ZM62 30h2v2h-2ZM68 30h2v2h-2ZM72 30h2v2h-2ZM76 30h6v2h-6ZM0 32h2v4h-2ZM4 32h2v2h-2ZM10 32h4v2h-4ZM16 32h4v2h-4ZM22 32h4v2h-4ZM32 32h6v2h-6ZM40 32h2v2h-2ZM44 32h2v2h-2ZM50 32h8v2h-8ZM60 32h2v2h-2ZM64 32h2v2h-2ZM70 32h2v2h-2ZM4 34h6v2h-6ZM14 34h2v2h-2ZM18 34h2v2h-2ZM22 34h6v2h-6ZM30 34h2v2h-2ZM34 34h2v4h-2ZM40 34h4v2h-4ZM48 34h2v2h-2ZM60 34h6v2h-6ZM68 34h4v2h-4ZM74 34h2v2h-2ZM6 36h2v2h-2ZM10 36h10v2h-10ZM22 36h2v2h-2ZM26 36h4v2h-4ZM40 36h2v2h-2ZM44 36h4v2h-4ZM50 36h2v2h-2ZM54 36h6v2h-6ZM62 36h2v2h-2ZM74 36h4v2h-4ZM80 36h2v2h-2ZM0 38h2v2h-2ZM4 38h8v2h-8ZM14 38h4v2h-4ZM20 38h4v2h-4ZM26 38h2v2h-2ZM30 38h20v2h-20ZM52 38h2v2h-2ZM56 38h2v2h-2ZM60 38h6v2h-6ZM68 38h2v2h-2ZM72 38h4v2h-4ZM78 38h4v2h-4ZM2 40h2v2h-2ZM6 40h2v2h-2ZM10 40h4v2h-4ZM16 40h2v4h-2ZM20 40h2v2h-2ZM28 40h6v2h-6ZM40 40h6v4h-6ZM50 40h6v2h-6ZM64 40h4v2h-4ZM70 40h2v2h-2ZM78 40h2v2h-2ZM0 42h2v2h-2ZM4 42h6v2h-6ZM24 42h2v2h-2ZM30 42h2v2h-2ZM36 42h2v2h-2ZM54 42h2v2h-2ZM66 42h10v2h-10ZM2 44h12v2h-12ZM16 44h4v2h-4ZM26 44h16v2h-16ZM44 44h22v2h-22ZM70 44h2v2h-2ZM74 44h6v2h-6ZM0 46h4v2h-4ZM8 46h2v2h-2ZM14 46h2v2h-2ZM20 46h2v2h-2ZM24 46h2v2h-2ZM30 46h2v2h-2ZM38 46h2v2h-2ZM42 46h6v2h-6ZM50 46h2v2h-2ZM56 46h10v2h-10ZM68 46h6v2h-6ZM76 46h2v2h-2ZM80 46h2v2h-2ZM0 48h2v2h-2ZM12 48h2v2h-2ZM18 48h2v4h-2ZM26 48h8v2h-8ZM36 48h2v4h-2ZM48 48h12v2h-12ZM70 48h2v2h-2ZM2 50h4v2h-4ZM14 50h2v2h-2ZM24 50h2v2h-2ZM30 50h2v4h-2ZM42 50h2v2h-2ZM46 50h4v2h-4ZM52 50h2v2h-2ZM56 50h2v2h-2ZM60 50h4v2h-4ZM68 50h4v2h-4ZM74 50h2v2h-2ZM4 52h10v2h-10ZM20 52h2v4h-2ZM36 52h4v2h-4ZM46 52h2v2h-2ZM50 52h4v2h-4ZM58 52h2v4h-2ZM64 52h2v2h-2ZM74 52h4v2h-4ZM0 54h4v2h-4ZM6 54h2v2h-2ZM14 54h4v2h-4ZM28 54h6v2h-6ZM38 54h4v2h-4ZM44 54h4v2h-4ZM50 54h2v2h-2ZM62 54h8v2h-8ZM72 54h2v2h-2ZM80 54h2v2h-2ZM2 56h2v2h-2ZM8 56h6v2h-6ZM18 56h2v2h-2ZM24 56h2v2h-2ZM30 56h2v2h-2ZM36 56h2v2h-2ZM42 56h2v2h-2ZM50 56h8v2h-8ZM60 56h2v2h-2ZM64 56h2v2h-2ZM68 56h2v2h-2ZM78 56h2v4h-2ZM0 58h6v2h-6ZM8 58h4v2h-4ZM14 58h2v2h-2ZM28 58h6v2h-6ZM40 58h6v2h-6ZM48 58h2v2h-2ZM52 58h4v2h-4ZM64 58h4v2h-4ZM70 58h2v2h-2ZM0 60h2v6h-2ZM4 60h2v4h-2ZM8 60h10v2h-10ZM20 60h6v2h-6ZM28 60h2v4h-2ZM34 60h6v2h-6ZM44 60h2v2h-2ZM50 60h2v2h-2ZM56 60h4v2h-4ZM66 60h2v2h-2ZM72 60h6v2h-6ZM8 62h2v2h-2ZM14 62h2v2h-2ZM22 62h2v2h-2ZM32 62h2v4h-2ZM38 62h4v2h-4ZM46 62h6v2h-6ZM60 62h16v2h-16ZM78 62h4v2h-4ZM4 64h4v2h-4ZM10 64h6v2h-6ZM18 64h8v2h-8ZM48 64h14v2h-14ZM64 64h10v2h-10ZM76 64h6v2h-6ZM16 66h4v2h-4ZM22 66h8v2h-8ZM32 66h4v2h-4ZM38 66h2v4h-2ZM42 66h2v2h-2ZM48 66h2v2h-2ZM52 66h6v2h-6ZM64 66h2v4h-2ZM72 66h4v2h-4ZM80 66h2v2h-2ZM0 68h14v2h-14ZM16 68h2v2h-2ZM20 68h2v2h-2ZM26 68h4v2h-4ZM34 68h2v2h-2ZM46 68h2v4h-2ZM50 68h4v2h-4ZM58 68h2v2h-2ZM68 68h2v2h-2ZM72 68h6v2h-6ZM0 70h2v10h-2ZM12 70h2v10h-2ZM18 70h2v2h-2ZM22 70h2v2h-2ZM26 70h2v2h-2ZM34 70h10v2h-10ZM52 70h2v2h-2ZM56 70h4v2h-4ZM62 70h4v2h-4ZM72 70h2v2h-2ZM78 70h2v2h-2ZM4 72h6v6h-6ZM16 72h6v2h-6ZM28 72h6v2h-6ZM44 72h2v2h-2ZM50 72h2v2h-2ZM54 72h2v4h-2ZM60 72h2v2h-2ZM64 72h14v2h-14ZM16 74h2v2h-2ZM20 74h2v2h-2ZM24 74h2v2h-2ZM30 74h2v2h-2ZM36 74h2v2h-2ZM40 74h4v2h-4ZM48 74h2v2h-2ZM64 74h2v2h-2ZM68 74h2v2h-2ZM74 74h2v2h-2ZM16 76h4v2h-4ZM28 76h8v2h-8ZM44 76h16v2h-16ZM62 76h2v2h-2ZM66 76h4v2h-4ZM76 76h4v2h-4ZM16 78h2v4h-2ZM24 78h8v2h-8ZM38 78h6v2h-6ZM46 78h2v2h-2ZM58 78h8v2h-8ZM70 78h2v2h-2ZM76 78h2v2h-2ZM80 78h2v2h-2ZM0 80h14v2h-14ZM20 80h2v2h-2ZM26 80h6v2h-6ZM36 80h2v2h-2ZM42 80h4v2h-4ZM52 80h8v2h-8ZM64 80h6v2h-6ZM72 80h6v2h-6Z"/>
 </g>
</svg>
