<?xml version="1.0" standalone="no"?>
<!DOCTYPE svg PUBLIC "-//W3C//DTD SVG 1.1//EN" "http://www.w3.org/Graphics/SVG/1.1/DTD/svg11.dtd">
<svg width="82" height="82" version="1.1" xmlns="http://www.w3.org/2000/svg">
 <desc>Zint Generated Symbol</desc>
 <g id="barcode" fill="#000000">
  <rect x="0" y="0" width="82" height="82" fill="#FFFFFF"/>
  <path d="M0 0h14v2h-14ZM26 0h2v2h-2ZM32 0h8v2h-8ZM44 0h2v4h-2ZM48 0h2v2h-2ZM52 0h2v2h-2ZM60 0h6v2h-6ZM68 0h14v2h-14ZM0 2h2v10h-2ZM12 2h2v10h-2ZM16 2h4v2h-4ZM24 2h8v2h-8ZM36 2h2v2h-2ZM48 2h6v2h-6ZM56 2h2v2h-2ZM60 2h2v2h-2ZM68 2h2v10h-2ZM80 2h2v10h-2ZM4 4h6v6h-6ZM16 4h2v2h-2ZM20 4h2v2h-2ZM24 4h4v2h-4ZM36 4h6v2h-6ZM52 4h4v2h-4ZM58 4h2v2h-2ZM62 4h4v4h-4ZM72 4h6v6h-6ZM18 6h4v2h-4ZM26 6h14v2h-14ZM44 6h8v2h-8ZM54 6h4v4h-4ZM16 8h2v2h-2ZM20 8h4v2h-4ZM26 8h4v2h-4ZM36 8h6v2h-6ZM46 8h2v2h-2ZM50 8h2v2h-2ZM60 8h2v2h-2ZM64 8h2v6h-2ZM16 10h4v2h-4ZM24 10h4v2h-4ZM30 10h12v2h-12ZM44 10h2v4h-2ZM52 10h10v2h-10ZM0 12h14v2h-14ZM16 12h2v4h-2ZM20 12h2v2h-2ZM24 12h2v2h-2ZM28 12h2v2h-2ZM32 12h2v2h-2ZM36 12h2v2h-2ZM40 12h2v2h-2ZM48 12h2v2h-2ZM52 12h2v2h-2ZM56 12h2v2h-2ZM60 12h2v2h-2ZM68 12h14v2h-14ZM20 14h4v2h-4ZM26 14h8v2h-8ZM42 14h2v2h-2ZM48 14h4v2h-4ZM62 14h4v2h-4ZM0 16h4v2h-4ZM6 16h2v4h-2ZM12 16h4v2h-4ZM20 16h2v2h-2ZM26 16h2v4h-2ZM36 16h2v2h-2ZM46 16h8v2h-8ZM68 16h6v2h-6ZM76 16h4v2h-4ZM14 18h2v2h-2ZM20 18h4v2h-4ZM32 18h4v2h-4ZM42 18h4v2h-4ZM48 18h6v2h-6ZM58 18h6v2h-6ZM68 18h2v2h-2ZM80 18h2v2h-2ZM0 20h2v2h-2ZM6 20h10v2h-10ZM20 20h12v2h-12ZM36 20h2v6h-2ZM40 20h6v2h-6ZM58 20h2v2h-2ZM62 20h2v2h-2ZM70 20h2v2h-2ZM78 20h2v2h-2ZM2 22h10v2h-10ZM16 22h6v2h-6ZM26 22h2v2h-2ZM30 22h4v2h-4ZM44 22h4v2h-4ZM50 22h2v4h-2ZM56 22h6v2h-6ZM68 22h4v2h-4ZM76 22h2v4h-2ZM80 22h2v4h-2ZM0 24h2v2h-2ZM12 24h2v2h-2ZM18 24h4v2h-4ZM24 24h2v2h-2ZM28 24h2v2h-2ZM32 24h2v2h-2ZM40 24h2v2h-2ZM44 24h2v2h-2ZM56 24h2v2h-2ZM60 24h2v2h-2ZM66 24h2v2h-2ZM70 24h4v2h-4ZM4 26h2v2h-2ZM10 26h2v2h-2ZM16 26h2v4h-2ZM22 26h4v2h-4ZM28 26h4v2h-4ZM34 26h4v2h-4ZM42 26h4v2h-4ZM52 26h2v2h-2ZM56 26h6v2h-6ZM64 26h2v2h-2ZM70 26h2v2h-2ZM74 26h2v2h-2ZM78 26h4v2h-4ZM2 28h2v2h-2ZM8 28h2v2h-2ZM12 28h2v2h-2ZM20 28h2v2h-2ZM24 28h2v2h-2ZM28 28h6v2h-6ZM40 28h4v2h-4ZM48 28h6v2h-6ZM56 28h2v6h-2ZM62 28h8v2h-8ZM72 28h2v2h-2ZM0 30h6v2h-6ZM24 30h4v2h-4ZM32 30h4v2h-4ZM42 30h2v2h-2ZM48 30h4v2h-4ZM60 30h2v2h-2ZM68 30h2v2h-2ZM78 30h4v2h-4ZM2 32h2v2h-2ZM10 32h6v2h-6ZM22 32h2v2h-2ZM30 32h2v4h-2ZM34 32h10v2h-10ZM60 32h4v2h-4ZM66 32h2v2h-2ZM70 32h2v2h-2ZM74 32h2v2h-2ZM78 32h2v2h-2ZM0 34h2v2h-2ZM6 34h2v2h-2ZM14 34h8v2h-8ZM34 34h6v2h-6ZM42 34h4v2h-4ZM50 34h4v2h-4ZM68 34h6v2h-6ZM76 34h2v2h-2ZM0 36h4v2h-4ZM10 36h8v2h-8ZM26 36h2v2h-2ZM34 36h2v2h-2ZM40 36h4v2h-4ZM50 36h2v4h-2ZM58 36h2v2h-2ZM62 36h8v2h-8ZM74 36h2v4h-2ZM78 36h4v6h-4ZM4 38h6v2h-6ZM14 38h2v2h-2ZM18 38h2v2h-2ZM22 38h6v2h-6ZM30 38h2v2h-2ZM38 38h4v2h-4ZM44 38h2v2h-2ZM58 38h8v2h-8ZM70 38h2v2h-2ZM0 40h2v2h-2ZM4 40h10v2h-10ZM18 40h6v2h-6ZM28 40h2v2h-2ZM34 40h2v4h-2ZM40 40h2v2h-2ZM46 40h2v4h-2ZM56 40h2v2h-2ZM64 40h2v2h-2ZM68 40h4v2h-4ZM4 42h2v2h-2ZM8 42h2v4h-2ZM14 42h10v2h-10ZM26 42h2v2h-2ZM30 42h2v2h-2ZM38 42h6v2h-6ZM50 42h4v2h-4ZM58 42h6v2h-6ZM66 42h6v2h-6ZM0 44h2v2h-2ZM12 44h4v2h-4ZM20 44h2v2h-2ZM32 44h4v2h-4ZM42 44h6v2h-6ZM54 44h8v2h-8ZM66 44h2v2h-2ZM70 44h4v2h-4ZM76 44h2v2h-2ZM0 46h10v2h-10ZM14 46h4v2h-4ZM26 46h6v2h-6ZM36 46h2v2h-2ZM40 46h10v2h-10ZM52 46h2v2h-2ZM56 46h4v2h-4ZM68 46h4v2h-4ZM74 46h4v2h-4ZM80 46h2v2h-2ZM4 48h4v2h-4ZM10 48h4v2h-4ZM18 48h4v2h-4ZM24 48h2v4h-2ZM34 48h2v2h-2ZM40 48h6v2h-6ZM50 48h2v2h-2ZM58 48h2v4h-2ZM64 48h8v2h-8ZM78 48h4v2h-4ZM0 50h2v8h-2ZM4 50h2v2h-2ZM10 50h2v2h-2ZM14 50h4v2h-4ZM28 50h10v2h-10ZM42 50h4v2h-4ZM52 50h2v2h-2ZM62 50h2v2h-2ZM72 50h4v2h-4ZM78 50h2v2h-2ZM6 52h2v2h-2ZM10 52h4v2h-4ZM16 52h2v2h-2ZM20 52h4v2h-4ZM32 52h6v2h-6ZM40 52h4v2h-4ZM46 52h2v2h-2ZM50 52h8v2h-8ZM64 52h8v4h-8ZM74 52h4v2h-4ZM4 54h2v2h-2ZM8 54h4v2h-4ZM14 54h2v2h-2ZM24 54h14v2h-14ZM48 54h6v2h-6ZM74 54h2v2h-2ZM78 54h2v2h-2ZM4 56h10v2h-10ZM20 56h2v2h-2ZM24 56h6v2h-6ZM36 56h6v2h-6ZM44 56h2v2h-2ZM48 56h2v2h-2ZM62 56h2v4h-2ZM66 56h4v2h-4ZM72 56h8v2h-8ZM2 58h4v2h-4ZM14 58h6v2h-6ZM24 58h4v2h-4ZM30 58h4v2h-4ZM36 58h4v2h-4ZM42 58h2v2h-2ZM48 58h4v2h-4ZM54 58h2v2h-2ZM66 58h2v2h-2ZM72 58h2v2h-2ZM76 58h4v2h-4ZM0 60h2v2h-2ZM4 60h2v2h-2ZM12 60h2v2h-2ZM16 60h2v2h-2ZM22 60h6v2h-6ZM30 60h6v2h-6ZM38 60h8v2h-8ZM50 60h10v2h-10ZM64 60h2v2h-2ZM68 60h4v2h-4ZM76 60h6v2h-6ZM4 62h4v2h-4ZM10 62h2v2h-2ZM16 62h6v2h-6ZM24 62h4v2h-4ZM34 62h10v2h-10ZM48 62h4v2h-4ZM58 62h2v2h-2ZM62 62h6v2h-6ZM74 62h6v2h-6ZM0 64h2v2h-2ZM6 64h2v2h-2ZM10 64h4v2h-4ZM20 64h2v2h-2ZM24 64h2v2h-2ZM28 64h4v2h-4ZM36 64h2v2h-2ZM42 64h2v2h-2ZM46 64h8v2h-8ZM60 64h2v2h-2ZM64 64h12v2h-12ZM16 66h2v4h-2ZM22 66h2v2h-2ZM28 66h2v2h-2ZM32 66h2v2h-2ZM36 66h4v2h-4ZM42 66h4v2h-4ZM48 66h18v2h-18ZM72 66h2v4h-2ZM0 68h14v2h-14ZM20 68h4v2h-4ZM30 68h2v2h-2ZM34 68h2v4h-2ZM42 68h2v2h-2ZM54 68h2v2h-2ZM58 68h8v2h-8ZM68 68h2v2h-2ZM78 68h2v2h-2ZM0 70h2v10h-2ZM12 70h2v10h-2ZM18 70h6v2h-6ZM28 70h2v2h-2ZM40 70h4v4h-4ZM46 70h2v2h-2ZM56 70h2v2h-2ZM60 70h2v4h-2ZM64 70h2v2h-2ZM72 70h8v2h-8ZM4 72h6v6h-6ZM52 72h2v2h-2ZM64 72h12v2h-12ZM78 72h4v2h-4ZM16 74h8v2h-8ZM30 74h6v2h-6ZM40 74h8v2h-8ZM52 74h8v2h-8ZM64 74h2v2h-2ZM70 74h6v2h-6ZM80 74h2v6h-2ZM18 76h2v2h-2ZM22 76h2v2h-2ZM26 76h4v2h-4ZM36 76h2v2h-2ZM42 76h12v2h-12ZM62 76h2v2h-2ZM70 76h2v2h-2ZM76 76h2v2h-2ZM16 78h8v2h-8ZM26 78h6v2h-6ZM34 78h4v2h-4ZM40 78h6v2h-6ZM48 78h2v2h-2ZM56 78h2v2h-2ZM64 78h2v2h-2ZM72 78h6v2h-6ZM0 80h14v2h-14ZM16 80h6v2h-6ZM26 80h4v2h-4ZM32 80h4v2h-4ZM38 80h6v2h-6ZM50 80h2v2h-2ZM56 80h4v2h-4ZM62 80h2v2h-2ZM68 80h2v2h-2ZM72 80h2v2h-2ZM78 80h2v2h-2Z"/>
 </g>
</svg>
